<svg width="64" height="64" viewBox="0 0 64 64" fill="none" xmlns="http://www.w3.org/2000/svg">
<g clip-path="url(#clip0_189_3306)">
<path d="M16.0375 9.6625L0.2625 19.1875L0.25 22.275V25.375H32H63.75V22.275V19.1875L62.15 18.2375C61.275 17.7125 57.3 15.325 53.3125 12.9125C49.325 10.5 42.925 6.65 39.1 4.325C35.2625 2.0125 32.05 0.125002 31.975 0.137501C31.8875 0.137501 24.7125 4.425 16.0375 9.6625ZM34.1875 9.3125C35.0125 9.7125 35.85 10.425 36.375 11.2C37.3625 12.625 37.525 14.7 36.775 16.3C35.225 19.6125 30.8625 20.375 28.275 17.7875C27.3375 16.85 26.8375 15.75 26.775 14.4375C26.675 12.4375 27.4375 10.8875 29.1 9.725C30.075 9.05 30.7875 8.8625 32.1875 8.9125C33.2625 8.95 33.55 9 34.1875 9.3125Z" fill="black"/>
<path d="M5.625 28.7375C5.625 31.05 5.6375 31.1125 5.9 31.3C6.1375 31.475 6.875 31.5 11.325 31.5C16.0375 31.5 16.5 31.4875 16.7375 31.275C17 31.075 17.0125 30.9875 16.975 28.75L16.9375 26.4375L11.2875 26.4L5.625 26.375V28.7375Z" fill="#DC4433"/>
<path d="M26.3 26.55C26.2625 26.65 26.25 27.7125 26.275 28.9375C26.3125 30.95 26.3375 31.1625 26.55 31.325C26.9125 31.5875 37.0875 31.5875 37.45 31.325C37.675 31.1625 37.6875 30.975 37.6875 28.7875V26.4375L32.025 26.4C27.2625 26.375 26.3625 26.4 26.3 26.55Z" fill="black"/>
<path d="M48 28.7375C48 30.725 48.0375 31.1375 48.2 31.3C48.375 31.475 49.0375 31.5 53.6375 31.5C58.725 31.5 58.8875 31.4875 59.125 31.25C59.3625 31.0125 59.375 30.8625 59.35 28.7125L59.3125 26.4375L53.6625 26.4L48 26.375V28.7375Z" fill="#DC4433"/>
<path d="M7.5 41.625V50.75H11.25H15V41.625V32.5H11.25H7.5V41.625Z" fill="#DC4433"/>
<path d="M28.25 41.625V50.75H32H35.75V41.625V32.5H32H28.25V41.625Z" fill="black"/>
<path d="M50 41.625V50.75H53.6875H57.375V41.625V32.5H53.6875H50V41.625Z" fill="#DC4433"/>
<path d="M5.8375 51.975C5.65 52.175 5.625 52.55 5.625 54.5375V56.875L11.2875 56.85L16.9375 56.8125L16.975 54.5125C17 52.5 16.975 52.1875 16.8 51.9875C16.6 51.7625 16.2875 51.75 11.3125 51.75C6.3625 51.75 6.025 51.7625 5.8375 51.975Z" fill="#DC4433"/>
<path d="M26.55 51.925C26.325 52.0875 26.3125 52.275 26.3125 54.4625V56.8125H32H37.6875V54.4625C37.6875 52.275 37.675 52.0875 37.45 51.925C37.0875 51.6625 26.9125 51.6625 26.55 51.925Z" fill="black"/>
<path d="M48.2 51.95C48.0375 52.1125 48 52.525 48 54.5125V56.875L53.6625 56.85L59.3125 56.8125L59.35 54.5375C59.375 52.3875 59.3625 52.2375 59.125 52C58.8875 51.7625 58.725 51.75 53.6375 51.75C49.0375 51.75 48.375 51.775 48.2 51.95Z" fill="#DC4433"/>
<path d="M0 60.9375V64H32H64V60.9375V57.875H32H0V60.9375Z" fill="black"/>
</g>
<defs>
<clipPath id="clip0_189_3306">
<rect width="64" height="64" fill="white"/>
</clipPath>
</defs>
</svg>
