<svg width="75" height="70" viewBox="0 0 75 70" fill="none" xmlns="http://www.w3.org/2000/svg">
<g clip-path="url(#clip0_68_819)">
<path fill-rule="evenodd" clip-rule="evenodd" d="M16.56 12.0983C16.6039 2.51619 16.6332 0.438871 16.8088 0.248693C16.9843 0.0146286 18.1254 0 30.3699 0H43.7409V6.56845C43.7409 10.9864 43.7994 13.2685 43.9017 13.5904C43.9554 13.7462 43.9997 13.8749 44.0755 13.9811C44.4335 14.4828 45.4944 14.4828 51.5674 14.4828H58.2236V19.1494V23.8014L57.5799 24.0502C56.5266 24.4451 55.8099 25.0596 55.3856 25.908C54.9028 26.9028 54.8882 27.7806 55.371 29.3312C55.6196 30.1505 55.6782 30.5162 55.5757 30.5893C55.2246 30.7942 53.5862 31.0867 52.7378 31.0867C52.0502 31.0721 51.7284 30.9989 51.2602 30.6917C50.2215 30.0188 48.6708 29.302 47.3981 28.8923C46.4326 28.5851 45.7743 28.4682 44.4723 28.4096L42.79 28.3511L40.3323 29.1704L37.8746 30.0042L36.4556 29.419C35.6802 29.1118 34.2613 28.5998 33.2957 28.3072C31.6426 27.7806 31.4964 27.766 30.0042 27.8244C27.839 27.9268 25.3961 28.7607 23.4064 30.0773C22.7189 30.5309 21.7534 30.6478 20.5977 30.4284L20.5093 30.4121C19.859 30.2922 19.551 30.2355 19.4507 30.06C19.3604 29.902 19.4384 29.6477 19.5867 29.1647L19.603 29.1118C20.0125 27.7806 19.9832 26.8589 19.5152 25.9227C19.0763 25.045 18.5643 24.6061 17.3647 24.0647L16.5309 23.6991L16.56 12.0983ZM46.418 11.9227C46.2716 11.8788 46.2278 10.7231 46.2278 6.77325V1.68234L51.348 6.80251L56.4682 11.9227L51.5381 11.9666C48.8171 11.9812 46.5058 11.9666 46.418 11.9227ZM7.51933 23.8746C7.34378 23.9478 7.13898 24.1672 7.05121 24.3428C6.78788 24.9279 0 46.023 0 46.257C0 46.93 0.570533 47.208 5.01776 48.6415C8.89446 49.8997 9.43574 50.0313 9.80146 49.8851C10.0209 49.7973 10.2696 49.5632 10.372 49.3584C10.7231 48.5685 17.4086 27.7513 17.4086 27.4149C17.4086 26.8735 16.955 26.5371 15.697 26.1274C15.0679 25.9373 13.1077 25.3083 11.3375 24.7378C9.5674 24.1672 8.06061 23.6991 7.97284 23.7136C7.89969 23.7136 7.68025 23.7868 7.51933 23.8746ZM14.0585 27.9268C14.5998 28.4828 14.629 29.1265 14.1171 29.6238C13.0784 30.6771 11.3814 29.3166 12.2299 28.1171C12.7127 27.4149 13.4588 27.3417 14.0585 27.9268ZM61.7492 25.3229C63.7973 24.6646 65.7283 24.0356 66.0502 23.9185C66.372 23.8161 66.7085 23.7136 66.8108 23.7136C67.1473 23.6845 67.7033 24.0209 67.8349 24.3428C68.1129 24.9279 74.9008 46.0376 74.9008 46.2716C74.9008 46.93 74.3155 47.208 69.8829 48.6415C66.0063 49.8997 65.4796 50.0459 65.1139 49.8851C64.8798 49.7973 64.6312 49.5779 64.5434 49.4023C64.2215 48.7732 57.4922 27.7952 57.4922 27.4295C57.4922 27.2246 57.6092 26.9467 57.7555 26.8005C57.9017 26.6541 59.7011 25.9812 61.7492 25.3229ZM62.3782 29.536C62.9049 29.1265 62.9196 28.234 62.3929 27.7221C61.6321 26.9467 60.3887 27.5026 60.3887 28.5998C60.3887 29.6677 61.5298 30.209 62.3782 29.536ZM28.5705 30.5016C27.3856 30.8234 26.0983 31.3939 24.884 32.0961C24.2696 32.4619 23.4064 32.8276 22.9676 32.93C22.0752 33.1202 20.5246 33.0324 19.3103 32.7105C18.8715 32.5936 18.5058 32.5058 18.4911 32.5204C18.4911 32.535 17.2184 36.4702 15.6677 41.2539C14.1171 46.0376 12.7127 50.2362 12.5517 50.5873L12.2591 51.2163L12.6395 51.7868C12.8443 52.094 13.2393 52.5329 13.5318 52.7378C13.9561 53.0596 14.1463 53.118 14.5705 53.0596C15.2581 52.9425 16.4138 53.1619 17.2184 53.5716C18.535 54.2299 19.603 55.8976 19.603 57.2873V58.0334L20.4514 58.2089C21.5925 58.4284 22.7189 59.116 23.3334 59.9498C23.6113 60.3302 23.8453 60.7252 23.8453 60.813C23.8453 61.047 24.0795 61.0616 24.2111 60.8569C24.2696 60.7691 24.65 60.535 25.0596 60.3155C27.0784 59.2915 29.697 59.9791 30.8673 61.837C31.1014 62.2027 31.3208 62.5685 31.35 62.6562C31.3793 62.7586 31.6133 62.7293 32.0083 62.5685C32.7105 62.2905 34.2905 62.232 34.9196 62.4807C36.163 62.9488 37.1724 64.1337 37.4503 65.4796C37.582 66.1233 37.5674 66.4305 37.3773 67.1766C37.3711 67.2002 37.3652 67.2233 37.3594 67.2457C37.3518 67.2745 37.3446 67.3023 37.3374 67.3292L37.3373 67.3297C37.2494 67.6649 37.1951 67.8721 37.2497 68.0449C37.3382 68.3247 37.7123 68.5141 38.6926 69.0102H38.6927L38.8112 69.0702C38.8538 69.0919 38.8976 69.1141 38.9425 69.1368C40.4932 69.9122 41.2685 69.9854 41.9707 69.4149C42.7754 68.7273 42.8923 67.6008 42.2633 66.7962C42.1024 66.5914 41.0052 65.9185 39.8202 65.2895C37.4357 64.0459 36.8652 63.5925 36.8652 62.9342C36.8652 62.349 37.4503 61.7346 38.0209 61.7346C38.2989 61.7346 39.6594 62.3782 41.7952 63.5193C45.5256 65.5089 46.023 65.6552 47.0616 65.1139C48.6124 64.3386 48.9635 62.5392 47.837 61.2519C47.5737 60.9447 46.5643 60.3155 45.2476 59.628C42.7754 58.326 42.2048 57.8433 42.3365 57.1411C42.4535 56.5705 42.8193 56.2048 43.3751 56.1024C43.7409 56.0293 44.4284 56.3511 47.3981 57.9456C50.4848 59.5987 51.0992 59.8767 51.8014 59.9352C53.2058 60.0669 54.303 59.2331 54.5224 57.8725C54.6249 57.1995 54.2591 56.2048 53.7179 55.7074C53.4984 55.5026 51.7429 54.5078 49.8119 53.4838C47.8809 52.4597 46.2132 51.5235 46.1254 51.3918C45.8036 50.9823 45.8914 50.1191 46.2716 49.768C46.9154 49.1682 47.2519 49.2853 52.5475 52.1086C57.3312 54.6541 57.6092 54.7858 58.3845 54.7858C59.3939 54.7858 60.14 54.3323 60.5643 53.4545C60.9299 52.7231 60.9299 52.1818 60.5788 51.4211C60.1986 50.5873 59.628 50.1191 56.9801 48.3929C52.372 45.3793 49.1829 43.814 44.9843 42.4973L43.5215 42.0439L36.9384 44.2236C30.9697 46.1986 30.2528 46.4033 29.2581 46.418C27.8683 46.4472 27.0199 46.0376 25.8495 44.7795C24.9572 43.7994 23.6991 41.5026 23.6991 40.815C23.6991 39.7179 27.8099 35.9143 31.8182 33.281C32.7105 32.6959 33.7638 32.0522 34.1588 31.8475L34.8903 31.4817L34.4514 31.3061C31.9791 30.3406 30.0627 30.0773 28.5705 30.5016ZM30.3553 37.3773C33.2372 35.0658 37.5089 32.7398 41.1077 31.5256C43.0094 30.882 43.1411 30.8673 44.4723 30.9258C46.4033 30.9989 46.7691 31.1453 50.6897 33.1933C51.348 33.5298 51.5674 33.5737 52.884 33.5591C53.8349 33.5444 54.7419 33.4274 55.4441 33.2372C56.0439 33.0763 56.5412 32.9592 56.5559 32.9738C56.5559 32.9738 57.6677 36.4117 59.0282 40.5956C60.3741 44.7795 61.5152 48.2905 61.5591 48.3929C61.603 48.5099 61.2372 48.3052 60.7691 47.9541C57.7116 45.6426 53.2497 43.0679 49.7095 41.5611C48.0857 40.8735 43.9895 39.4984 43.5506 39.4984C43.3898 39.4984 40.2591 40.4785 36.5873 41.6782C32.9154 42.8777 29.7701 43.9017 29.5799 43.9603C29.0826 44.1066 28.3511 43.7994 27.766 43.185C27.1807 42.5705 26.4785 41.4149 26.4785 41.0638C26.4785 40.815 28.7022 38.7085 30.3553 37.3773ZM14.7022 55.5904C13.8829 55.766 13.605 56.0439 12.4201 57.814C11.5277 59.1453 11.2058 59.745 11.1619 60.1839C11.0011 61.7638 12.6688 62.9196 14.1024 62.2466C14.907 61.8663 16.9843 58.7356 17.0867 57.7701C17.2184 56.3804 16.0334 55.2978 14.7022 55.5904ZM17.1892 62.6854C18.2278 61.1933 18.5204 60.8861 19.1055 60.7105C20.4807 60.3009 21.9436 61.5298 21.7534 62.9488C21.6657 63.5925 19.8224 66.489 19.1348 67.0742C17.8621 68.1421 15.7994 67.2351 15.7994 65.5967C15.7994 64.8067 15.9895 64.4117 17.1892 62.6854ZM26.0836 62.5977C25.513 62.9635 23.465 65.8453 23.2456 66.6353C23.0262 67.4107 23.2602 68.1713 23.9185 68.7419C24.372 69.1223 24.5622 69.1954 25.2351 69.1954C25.8641 69.1954 26.0983 69.1223 26.4639 68.815C27.0491 68.3323 28.9216 65.5381 29.0826 64.9091C29.3312 63.9729 28.8777 62.9635 28.0439 62.5538C27.371 62.2466 26.6541 62.2613 26.0836 62.5977ZM31.4671 66.6939C31.9644 65.9331 32.5058 65.2017 32.6666 65.07C32.8569 64.9237 33.2372 64.8067 33.5883 64.8067C34.5685 64.8067 35.2853 65.7722 34.9488 66.6646C34.7293 67.2497 33.0763 69.6196 32.7837 69.7806C32.2132 70.0732 31.4525 69.9561 30.9989 69.5026C30.326 68.8296 30.4138 68.303 31.4671 66.6939ZM34.335 14.6863H36.3151C37.1601 14.6863 37.8877 14.5488 38.4977 14.2737C39.1127 13.9988 39.5877 13.6013 39.9227 13.0812C40.2627 12.5612 40.4328 11.9387 40.4328 11.2137C40.4328 10.5236 40.2678 9.91112 39.9377 9.3761C39.6077 8.84109 39.1352 8.42108 38.5202 8.11607C37.9102 7.81106 37.1752 7.65855 36.3151 7.65855H32.085V12.9312H30.5699V14.6863H32.085V15.3013H30.5699V17.0564H32.085V18.5789H34.335V17.0564H36.7276V15.3013H34.335V14.6863ZM34.335 12.9312H36.2626C36.7276 12.9312 37.0976 12.8587 37.3726 12.7137C37.6526 12.5687 37.8552 12.3687 37.9802 12.1137C38.1051 11.8537 38.1677 11.5587 38.1677 11.2286C38.1677 10.9037 38.1002 10.6062 37.9651 10.3361C37.8351 10.0611 37.6327 9.84112 37.3576 9.67612C37.0876 9.50611 36.7426 9.42111 36.3226 9.42111H34.335V12.9312Z" fill="black"/>
<path d="M66.0502 23.9056C65.7284 24.0227 63.7973 24.6517 61.7492 25.31C59.7011 25.9683 57.9018 26.6412 57.7555 26.7875C57.6093 26.9338 57.4922 27.2117 57.4922 27.4166C57.4922 27.7823 64.2215 48.7603 64.5434 49.3894C64.6312 49.565 64.8798 49.7844 65.114 49.8722C65.4796 50.033 66.0063 49.8868 69.883 48.6286C74.3156 47.1951 74.9008 46.917 74.9008 46.2587C74.9008 46.0247 68.1129 24.915 67.835 24.3299C67.7033 24.008 67.1474 23.6716 66.8109 23.7007C66.7085 23.7007 66.372 23.8032 66.0502 23.9056ZM62.393 27.7092C62.9196 28.2211 62.9049 29.1136 62.3783 29.5231C61.5298 30.196 60.3887 29.6548 60.3887 28.5869C60.3887 27.4897 61.6322 26.9338 62.393 27.7092Z" fill="#FE0000"/>
<path d="M7.51933 23.8603C7.34378 23.9334 7.13898 24.1529 7.05121 24.3284C6.78788 24.9136 0 46.0087 0 46.2427C0 46.9156 0.570533 47.1936 5.01776 48.6272C8.89447 49.8853 9.43574 50.017 9.80146 49.8707C10.0209 49.783 10.2696 49.5488 10.372 49.3441C10.7231 48.5541 17.4086 27.7369 17.4086 27.4005C17.4086 26.8592 16.955 26.5228 15.697 26.1131C15.0679 25.923 13.1077 25.2939 11.3375 24.7234C9.5674 24.1529 8.06061 23.6847 7.97284 23.6993C7.89969 23.6993 7.68025 23.7725 7.51933 23.8603ZM14.0585 27.9125C14.5998 28.4684 14.629 29.1121 14.1171 29.6095C13.0784 30.6628 11.3814 29.3023 12.2299 28.1027C12.7127 27.4005 13.4588 27.3273 14.0585 27.9125Z" fill="#FE0000"/>
</g>
<defs>
<clipPath id="clip0_68_819">
<rect width="74.9373" height="70" fill="white"/>
</clipPath>
</defs>
</svg>
