<svg width="73" height="70" viewBox="0 0 73 70" fill="none" xmlns="http://www.w3.org/2000/svg">
<g clip-path="url(#clip0_68_823)">
<path d="M7.82476 0.352468C7.47229 0.690836 7.47229 0.704934 7.47229 3.59516V6.4854H19.8791C30.3826 6.4854 32.3565 6.51359 32.6808 6.68277C32.9769 6.85196 49.3877 23.1359 49.5146 23.4038C49.5427 23.4461 49.585 27.1681 49.6273 31.6797L49.6979 39.8992L52.2074 35.5569L54.7029 31.2285L54.6747 15.9597L54.6324 0.676737L54.2376 0.338368L53.8429 0H31.003H8.16313L7.82476 0.352468Z" fill="black"/>
<path d="M0.634441 9.05126C0.479355 9.13586 0.281974 9.31915 0.183283 9.43193C0.0422961 9.61522 0.0140987 16.2556 0 39.4481V69.2386L0.352467 69.5769L0.690835 69.9294H23.573C41.3373 69.9153 46.5116 69.8871 46.6808 69.7461C47.2024 69.3514 47.2306 69.0694 47.2306 63.867C47.2306 59.8348 47.1884 58.7774 47.0615 58.8197C45.426 59.4259 44.9184 59.4118 44.5095 58.7632C44.3122 58.4671 43.2829 52.447 43.2548 51.4883C43.2407 51.2064 43.861 50.0221 45.2427 47.6253L47.2306 44.1711V34.7109V25.2366H39.6174C31.2145 25.2366 31.3414 25.2506 31.0313 24.3765C30.9325 24.0664 30.8761 21.5427 30.8761 16.4108V8.88208H15.9033C4.89225 8.89619 0.845921 8.93848 0.634441 9.05126ZM27.4219 15.72C27.7745 16.0583 27.8731 16.6363 27.6899 17.1298C27.4361 17.7642 27.3938 17.7642 16.7915 17.7642H6.78147L6.4008 17.4259C6.10473 17.1721 6.00604 16.9747 6.00604 16.5659C6.00604 16.157 6.10473 15.9596 6.4008 15.7058L6.78147 15.3674H16.9325H27.0835L27.4219 15.72ZM27.4219 24.884C27.9154 25.3635 27.8872 25.9837 27.3656 26.5195L26.9567 26.9284H17.003C10.7714 26.9284 6.93656 26.872 6.69687 26.7874C6.28802 26.6324 5.87915 25.8146 6.02014 25.4198C6.06243 25.2789 6.23162 25.0251 6.38671 24.8418L6.66868 24.5316H16.8761H27.0835L27.4219 24.884ZM40.8439 34.0059C41.0554 34.2034 41.1681 34.4712 41.1681 34.7813C41.1681 35.444 40.9708 35.7541 40.4491 35.9375C40.1249 36.0502 35.1903 36.0925 23.5166 36.0925C5.4139 36.0925 6.4008 36.1348 6.09063 35.2466C5.90735 34.7532 5.97784 34.4571 6.38671 34.0059L6.66868 33.6958H23.6012H40.5196L40.8439 34.0059ZM40.7311 43.0009C41.1681 43.2265 41.3796 43.9173 41.1541 44.4248C40.8016 45.299 41.6193 45.2567 23.7281 45.2567C12.6325 45.2567 7.23263 45.2003 6.86606 45.1016C5.93554 44.8478 5.69587 43.6354 6.4572 43.0573C6.65458 42.9022 9.95367 42.874 23.5871 42.8599C34.147 42.8599 40.576 42.9163 40.7311 43.0009ZM40.5196 52.0804C41.14 52.3342 41.4079 52.9828 41.1681 53.575C41.0695 53.8146 40.8721 54.0683 40.7311 54.1389C40.576 54.2235 34.1329 54.2798 23.573 54.2798H6.66868L6.38671 53.9556C5.97784 53.5044 5.90735 53.2224 6.09063 52.7149C6.38671 51.8549 5.55488 51.8972 23.5871 51.8831C37.2628 51.8831 40.1249 51.9112 40.5196 52.0804ZM40.5902 61.2587C40.8157 61.3715 41.0272 61.5689 41.0835 61.6816C41.2669 62.1611 41.1681 62.7955 40.858 63.1197L40.5619 63.444H23.6153H6.66868L6.38671 63.1197C5.97784 62.6827 5.90736 62.3866 6.07654 61.8931C6.38671 61.0049 5.3857 61.0614 23.5871 61.0472C37.8973 61.0472 40.2518 61.0754 40.5902 61.2587Z" fill="black"/>
<path d="M33.3011 16.7352L33.3434 22.7695L39.3776 22.8118C42.6908 22.8258 45.3977 22.7976 45.3977 22.7412C45.3977 22.6003 33.5125 10.7151 33.3716 10.7151C33.3152 10.7151 33.287 13.422 33.3011 16.7352Z" fill="black"/>
<path d="M65.7704 18.0321C65.009 18.3846 64.3605 19.0754 64.6001 19.2728C64.8399 19.4561 69.5911 22.1348 69.6898 22.1348C69.8308 22.1348 70.0705 21.2466 70.0705 20.739C70.0705 20.02 69.4784 18.8499 68.9285 18.441C67.9698 17.7219 66.7572 17.5668 65.7704 18.0321Z" fill="#FE0000"/>
<path d="M54.6465 36.1208C47.724 48.1048 46.1168 50.9667 46.2719 51.1078C46.4975 51.3193 51.1642 53.998 51.2911 53.998C51.3757 53.998 67.4482 26.28 68.2659 24.7291L68.5196 24.2639L65.8973 22.7835C64.4452 21.9516 63.2609 21.2891 63.2326 21.2891C63.2186 21.2891 59.3555 27.9577 54.6465 36.1208Z" fill="#FE0000"/>
<path d="M69.1682 23.1782C68.8862 23.6716 68.6606 24.151 68.6606 24.2356C68.6606 24.3202 68.8862 24.5034 69.1541 24.6445L69.6476 24.8841L67.5328 28.5498C66.1934 30.876 65.418 32.3564 65.418 32.6102C65.418 33.4984 66.6869 34.0342 67.3636 33.442C67.5186 33.3152 68.6465 31.4682 69.8591 29.3393C71.4944 26.4913 72.1008 25.3353 72.143 24.8982C72.2276 24.0241 71.847 23.4319 70.7613 22.7975C70.2678 22.5155 69.8168 22.2759 69.7603 22.2759C69.718 22.2759 69.4502 22.6847 69.1682 23.1782Z" fill="#FE0000"/>
<path d="M53.7723 54.7028C53.293 55.5206 52.7855 56.31 52.6445 56.4792C52.4894 56.6343 51.7563 57.0009 50.995 57.297L49.6273 57.8327V59.4399V61.0472H51.7281C53.6173 61.0472 53.8569 61.0191 54.1812 60.7653C54.3927 60.5961 54.5901 60.2718 54.6324 60.018C54.6747 59.7642 54.7028 58.1429 54.6747 56.3946L54.6324 53.2224L53.7723 54.7028Z" fill="black"/>
<path d="M46.2013 55.0835C46.3001 55.7603 46.427 56.3383 46.4551 56.3666C46.5116 56.437 48.443 55.7603 48.7673 55.5629C48.8942 55.4784 48.5276 55.1963 47.5548 54.6465C46.7794 54.2095 46.1168 53.8569 46.0745 53.8569C46.0322 53.8569 46.0886 54.4068 46.2013 55.0835Z" fill="#FE0000"/>
</g>
<defs>
<clipPath id="clip0_68_823">
<rect width="72.2205" height="70" fill="white"/>
</clipPath>
</defs>
</svg>
