<svg width="18" height="18" viewBox="0 0 18 18" fill="none" xmlns="http://www.w3.org/2000/svg">
<path fill-rule="evenodd" clip-rule="evenodd" d="M11.5072 11.4321C11.9251 11.0142 12.2566 10.5182 12.4828 9.97221C12.709 9.42624 12.8254 8.84107 12.8255 8.25011C12.8255 7.65914 12.7092 7.07396 12.483 6.52797C12.2569 5.98198 11.9255 5.48587 11.5076 5.06797C11.0898 4.65007 10.5937 4.31856 10.0477 4.09238C9.50177 3.8662 8.9166 3.74976 8.32563 3.74973C7.13213 3.74966 5.98748 4.22371 5.14349 5.06759C4.29951 5.91148 3.82532 7.05607 3.82525 8.24958C3.82518 9.44308 4.29923 10.5877 5.14312 11.4317C5.987 12.2757 7.1316 12.7499 8.3251 12.75C9.51861 12.75 10.6633 12.276 11.5072 11.4321ZM12.5677 4.00709C13.6014 5.04073 14.2223 6.41615 14.3137 7.87512C14.4051 9.33409 13.9608 10.7763 13.0642 11.9308C13.0762 11.9406 13.0867 11.9511 13.0987 11.9623L16.2802 15.1438C16.421 15.2845 16.5001 15.4753 16.5001 15.6742C16.5002 15.8732 16.4213 16.064 16.2806 16.2047C16.14 16.3455 15.9492 16.4246 15.7503 16.4246C15.5513 16.4247 15.3605 16.3457 15.2197 16.2051L12.0375 13.0228C12.0266 13.0119 12.0161 13.0007 12.006 12.9891C10.8001 13.9231 9.28388 14.3628 7.76543 14.2189C6.24697 14.0751 4.84029 13.3584 3.83131 12.2145C2.82233 11.0707 2.28679 9.58556 2.33354 8.06102C2.38029 6.53649 3.00583 5.08696 4.08299 4.00709C5.20819 2.88204 6.7342 2.25 8.32537 2.25C9.91654 2.25 11.4425 2.88204 12.5677 4.00709ZM7.57499 5.24984H9.07499V7.49984H11.325V8.99984H9.07499V11.2498H7.57499V8.99984H5.32499V7.49984H7.57499V5.24984Z" fill="white"/>
</svg>
