<svg width="5" height="8" viewBox="0 0 5 8" fill="none" xmlns="http://www.w3.org/2000/svg">
<path d="M0.419125 6.26365L2.68246 4.00032L0.419125 1.73699C0.365119 1.68298 0.322279 1.61887 0.293051 1.5483C0.263823 1.47774 0.248779 1.40211 0.248779 1.32574C0.248779 1.24936 0.263823 1.17373 0.293051 1.10317C0.322279 1.03261 0.365119 0.968492 0.419125 0.914486C0.473131 0.86048 0.537245 0.81764 0.607808 0.788412C0.67837 0.759184 0.753999 0.744141 0.830375 0.744141C0.906751 0.744141 0.982379 0.759184 1.05294 0.788412C1.1235 0.81764 1.18762 0.86048 1.24162 0.914486L3.91912 3.59199C4.14662 3.81949 4.14662 4.18699 3.91912 4.41449L1.24162 7.09199C1.18766 7.14606 1.12356 7.18897 1.05299 7.21824C0.982421 7.24751 0.906773 7.26258 0.830375 7.26258C0.753976 7.26258 0.678328 7.24751 0.607761 7.21824C0.537193 7.18897 0.473091 7.14606 0.419125 7.09199C0.197458 6.86449 0.191625 6.49115 0.419125 6.26365Z" fill="#424242"/>
</svg>
